<svg xmlns="http://www.w3.org/2000/svg" version="1.1" xmlns:xlink="http://www.w3.org/1999/xlink" xmlns:svgjs="http://svgjs.dev/svgjs" viewBox="0 0 800 800"><defs><linearGradient x1="50%" y1="0%" x2="50%" y2="100%" id="ccchaos-grad"><stop stop-color="#0392ff" stop-opacity="1" offset="0%"></stop><stop stop-color="#1065b4" stop-opacity="1" offset="100%"></stop></linearGradient></defs><g stroke-width="1" stroke="url(#ccchaos-grad)" fill="none" stroke-linecap="round"><path d="M371.99 39.26C377.85 41.86 383.64 44.25 389.36 46.28 397.91 48.18 414.77 48.42 423.13 46.99 428.73 45.51 434.34 43.93 439.97 42.4 445.68 40.91 451.46 39.76 457.33 39.09 463.32 38.85 469.46 39.28 475.77 40.44 482.25 42.21 488.95 44.72 495.91 47.93 503.08 51.66 510.55 55.93 518.32 60.64 526.34 65.57 534.67 70.7 543.33 75.89 552.2 80.94 561.35 85.84 570.77 90.49 580.3 94.71 589.99 98.56 599.79 102.01 609.51 104.93 619.17 107.45 628.67 109.61 646.6 112.61 662.6 114.94 675.57 117.25 685.02 119.61 690.12 123.23 690.47 128.51 687.28 135.23 680.52 143.92 671.57 154.38 663.39 166.18 657.03 179.2 654.74 193 655.93 200.08 658.72 207.23 663.21 214.41 669.51 221.58 677.47 228.72 687 235.8 697.88 242.81 709.82 249.71 722.49 256.51 735.46 263.19 748.31 269.75 760.56 276.2 771.77 282.51 781.49 288.73 789.29 294.85 794.94 300.84 798.13 306.77 798.7 312.65 796.82 318.41 792.42 324.16 785.73 329.9 777.36 335.56 767.53 341.23 756.79 346.95 746 352.61 735.56 358.33 726.09 364.13 718.4 369.89 712.77 375.74 709.62 381.71 709.37 387.65 711.94 393.71 717.28 399.9 725.24 406.08 735.32 412.4 746.97 418.86 759.61 425.32 772.26 431.85 784.19 438.44 794.94 445.03 803.66 451.68 809.89 458.38 813.47 465.07 814.02 471.8 811.54 478.55 806.3 485.27 798.45 492 788.42 498.7 776.77 505.34 764.01 511.94 750.76 518.44 737.65 524.85 725.21 531.13 713.95 537.24 704.36 543.2 696.7 548.94 691.18 554.42 687.53 562.17 693.7 575.55 701.97 581.02 708.9 584.26 716.2 587.05 723.42 589.38 740.02 594.14 738.6 599.23 716.57 602.49 696.02 607.43 673.32 614.91 650.43 625.57 628.57 639.73 609.19 656.91 592.9 676.31 579.9 696.48 570.07 715.8 562.79 732.23 552.85 746.15 544.96 731.92 542.06 723.43 534.44 712.21 519.03 715.85 512.53 725.4 507.98 733.81 503.13 743.27 498.01 753.35 492.81 763.63 487.36 773.54 481.69 782.55 475.97 790.25 470.05 796.13 463.96 799.85 457.85 801.32 451.58 800.31 445.16 796.86 438.74 791.37 432.19 783.98 425.53 775.12 418.86 765.57 412.15 755.82 405.42 746.47 398.68 738.17 391.92 731.29 385.12 726.2 378.33 723.26 371.49 722.44 364.63 723.7 357.75 727.04 350.84 732.02 343.88 738.23 336.91 745.45 329.89 752.98 322.83 760.33 315.76 767.22 308.64 773.01 301.49 777.33 294.34 780.1 287.16 780.92 279.97 779.73 272.8 776.66 265.63 771.68 258.5 765 251.42 756.95 244.4 747.76 237.47 737.79 230.65 727.42 223.95 717 217.41 706.85 211.04 697.31 204.87 688.6 198.93 680.95 193.2 674.52 187.74 669.38 182.57 665.51 172.96 661.82 164.59 662.24 157.51 665.25 148.42 672.17 133.61 674.36 125.97 665.17 119.75 654.9 112.9 641.76 105.44 626.57 101.36 618.41 97.2 610 93 601.42 88.71 592.69 84.48 583.95 80.36 575.25 76.3 566.58 72.44 558.04 68.85 549.68 65.44 541.44 62.35 533.43 59.62 525.64 57.12 518.03 54.99 510.64 53.21 503.48 51.64 496.48 50.38 489.69 49.4 483.07 48.52 476.6 47.84 470.27 47.31 464.06 46.74 457.96 46.24 451.94 45.78 445.98 45.16 440.09 44.52 434.22 43.85 428.37 42.97 422.55 42.05 416.72 41.1 410.86 39.98 405.01 38.88 399.12 37.83 393.18 36.7 387.25 35.71 381.26 34.89 375.21 34.13 369.16 33.64 363.13 33.44 357.12 33.4 351.11 33.69 345.14 34.33 339.21 35.16 333.29 36.33 327.44 37.8 321.65 39.43 315.9 41.31 310.24 43.4 304.69 46.66 296.5 53.5 280.92 56.84 273.61 59.82 266.61 65.01 253.74 67.25 247.89 71.25 237.26 78.46 222.86 81.85 218.32 84.44 215.17 87.41 211.99 90.74 208.75 98.27 201.51 107.21 193.6 117.32 184.75 127.97 174.48 139.11 163.18 150.34 151 161.04 138.09 171.28 125.13 180.92 112.76 189.51 101.37 197.5 91.78 205.06 84.48 215.28 78.24 230.41 75.09 235.69 75.18 241.1 74.98 252.82 72.75 259.15 70.26 265.76 66.42 279.95 55.97 287.49 49.86 292.62 45.64 297.9 41.58 303.28 37.83 308.72 34.4 314.25 31.56 319.87 29.4 328.38 27.51 345.68 28.68 354.43 31.45 360.27 33.79 366.12 36.45 371.98 39.26" stroke-dasharray="0 0" transform="rotate(0, 400, 400)" opacity="0.42"></path><path d="M372.89 52.4C378.55 55.02 384.23 57.44 389.93 59.52 398.51 61.54 415.89 62.13 424.75 60.86 430.72 59.47 436.79 57.92 442.97 56.37 455.56 53.3 468.78 51.83 482.77 52.71 497.3 55.87 512.78 61.83 529.23 70.11 546.13 79.63 563.79 89.9 581.85 100.01 599.54 108.9 616.73 116.42 632.63 122.44 646.55 126.54 657.84 129.59 665.7 132.12 670.61 135.45 658.93 148.67 647.68 160.23 642.31 169.88 640.04 181.03 642.55 193.32 651.24 206.4 665.9 220.08 685.87 234.01 709.39 248.04 733.92 261.94 756.28 275.58 773.53 288.95 783.05 301.99 783.19 314.72 774.82 327.14 758.97 339.37 738.81 351.5 728.76 357.5 719.24 363.5 710.81 369.51 704.15 375.5 699.48 381.52 697.14 387.57 697.46 393.62 700.36 399.71 705.76 405.87 713.52 412.02 723.18 418.23 734.25 424.51 746.23 430.79 758.23 437.07 769.61 443.33 779.97 449.58 788.55 455.82 794.9 462.02 798.9 468.21 800.15 474.35 798.62 480.43 794.53 486.47 787.94 492.43 779.2 498.27 757.14 509.76 732.1 520.61 708.3 530.57 689.41 540 677.68 548.25 673.89 555.14 678 561.33 687.66 566.1 700.13 569.52 718.91 573.85 728.27 582.32 714.06 590.17 698.03 598.64 678.55 609.74 657.35 623.69 635.62 640.22 614.88 658.65 596.07 677.89 579.56 696.47 565.79 712.89 554.58 725.48 545.84 733.37 538.94 735.62 533.23 732.22 528.84 725.01 524.63 715.05 520.11 704.76 515.85 697.6 510.7 695.05 504.48 698.77 498.07 709.43 490.47 725.52 481.73 744.62 477.28 754.36 472.56 763.57 467.58 771.77 459.93 781.2 443.45 787.12 434.67 782.93 428.74 777.55 422.62 770.43 416.33 761.98 410.03 752.89 403.64 743.59 397.16 734.62 390.69 726.56 384.13 719.75 377.5 714.51 370.88 711.21 364.2 709.83 357.44 710.37 350.7 712.88 343.9 716.97 337.05 722.34 323.4 735.99 309.57 749.84 295.69 760.59 282 766.43 268.39 765.12 255.04 756.67 242.16 742.5 229.81 724.22 218.21 704.35 207.38 685.31 197.54 669.01 188.85 656.7 177.63 647.54 160.87 650.65 154.09 655.38 149.15 657.4 143.93 656.82 138.2 653.26 131.35 647.18 123.85 638.12 115.8 626.59 107.06 613.2 98.36 598.33 90.11 582.65 82.32 566.39 75.68 550.14 70.46 534.26 66.28 518.6 63.49 503.57 61.93 489.25 60.7 475.3 59.97 461.96 59.42 449.13 58.88 442.81 58.29 436.58 57.63 430.44 56.73 424.33 55.76 418.29 54.72 412.29 53.49 406.32 52.26 400.38 51.05 394.48 49.77 388.59 48.6 382.71 47.61 376.86 46.37 368.14 45.67 351.16 46.35 342.93 47.74 334.82 52.49 319.23 55.65 311.8 60.14 302.06 65 292.97 69.85 284.58 73.87 276.31 77.47 268.73 80.63 261.81 82.96 254.8 85.31 248.21 88.02 241.87 90.97 234.96 95.04 227.86 100.45 220.29 106.94 211.61 114.95 202.11 124.28 191.67 134.43 180.1 145.36 167.81 156.71 155.09 167.9 142.22 178.88 129.87 189.44 118.64 199.13 108.79 208.21 100.97 216.75 95.46 224.37 91.77 231.67 90.04 238.86 89.78 245.52 89.61 252.4 89.32 259.64 88.11 266.75 84.83 274.42 79.81 282.7 73.17 291.05 65.02 300.03 56.68 309.58 49.25 316.86 44.73 332.06 39.95 339.96 39.97 345.26 40.84 350.66 42.38 356.15 44.5 361.64 46.89 367.22 49.58 372.88 52.4" stroke-dasharray="0 0" transform="rotate(3.7407407407407405, 400, 400)" opacity="0.40"></path><path d="M380.42 65.54C391.54 70.47 403.03 74.18 414.9 76.06 426.87 75.44 439.35 73.3 452.41 70.43 465.7 67.18 479.7 65.21 494.42 65.31 509.42 67.46 525.13 72.36 541.37 79.68 557.57 88.53 573.88 98.54 589.82 108.85 604.8 118.41 618.5 126.97 630.22 134.2 646.14 145.95 634.47 160.07 626.49 168.67 624.83 176.08 627.01 185.05 634.13 195.35 646.78 206.65 664.35 218.88 685.71 231.74 708.86 245.03 731.4 258.55 750.51 272.08 763.92 285.62 769.64 298.99 766.72 312.12 756.53 325.11 740.29 337.86 721.05 350.39 703.46 362.82 690.35 375.11 684.81 387.31 688.93 399.47 701.89 411.59 721.54 423.67 744.45 435.76 765.23 447.49 779.84 458.82 786.21 470.07 782.47 480.8 769.48 490.85 749.82 500.68 726.42 509.66 703.03 517.63 683.04 525.22 668.8 531.7 661.54 537.01 661.71 542.03 667.79 546.09 677.69 549.41 689.97 553.1 701.31 556.76 709.62 560.92 714.23 566.66 713.38 573.89 707.05 583.13 696.02 594.82 680.79 608.81 662.71 624.92 642.85 642.49 622.54 660.74 602.9 678.47 584.4 694.4 567.82 707.25 553.37 715.77 541 719.75 530.61 718.67 521.78 713.02 514.49 704.94 508.02 695.52 501.88 687.01 496.41 682.34 490.66 682.53 484.33 688.62 478.1 700.78 471.03 717.3 463.02 735.78 454.93 753.45 445.87 766.96 435.88 773.66 425.82 772.76 414.89 763.91 403.13 748.84 391.38 731.45 379.15 715.04 366.56 702.9 354.04 697.54 341.22 699.17 328.22 706.77 315.38 718.96 302.46 732.15 289.62 743.35 277.1 750.83 264.85 752.16 253.05 746.9 241.81 735.95 231.25 720.26 221.57 701.91 212.6 683.02 204.62 665.45 197.7 650.7 188.63 636.37 174.15 630.47 167.36 633.7 162.02 636.36 156.18 637.57 149.7 636.69 142.12 634.05 133.95 628.75 125.39 620.97 116.38 611.29 107.64 599.7 99.57 586.71 92.17 572.71 86.07 558.07 81.47 543.24 77.93 528.18 75.76 513.36 74.73 498.96 73.94 484.69 73.52 470.93 73.15 457.72 71.94 444.65 70.31 432.05 68.29 419.88 65.44 407.78 62.65 396.03 60.32 384.64 58.32 373.24 57.61 362.43 58.37 352.21 60.15 341.99 63.36 332.38 67.73 323.4 72.42 314.42 77.53 306.07 82.65 298.34 86.97 290.51 90.8 283.19 94.1 276.25 96.44 268.97 98.59 261.79 100.89 254.52 103.19 246.49 106.4 238 110.8 228.87 116.17 218.71 123.06 207.78 131.36 196.11 140.66 183.74 151.01 171.07 162.08 158.49 173.36 146.32 184.75 135.15 195.98 125.5 206.63 117.43 216.79 111.45 226.42 107.65 235.19 105.3 243.51 104.48 251.52 104.59 258.84 104.3 266.12 103.46 273.51 101.43 280.54 97.3 287.93 91.51 295.77 84.33 303.48 75.98 311.75 67.75 320.6 60.67 329.41 55.21 338.82 52.46 348.8 52.75 358.76 55.25 369.3 59.85 380.41 65.54" stroke-dasharray="0 0" transform="rotate(7.481481481481481, 400, 400)" opacity="0.59"></path><path d="M392.75 78.68C403.77 83.64 415.3 87.45 427.33 89.53 439.44 89.19 452.13 87.31 465.39 84.57 478.77 81.23 492.73 78.86 507.19 78.24 521.65 79.43 536.4 83.23 551.17 89.48 565.48 97.46 579.28 106.92 592.08 117.13 603.58 127.07 613.32 136.43 620.78 144.75 627.56 154.11 625.23 165.29 618.32 169.2 612.16 173.48 614.77 188.58 629.19 200.14 644.89 209.29 664.24 219.58 685.83 230.74 707.65 242.56 727.53 254.92 743.07 267.57 752.67 280.5 754.9 293.47 749.4 306.35 737.89 319.28 721.65 332.02 703.56 344.53 687.78 357.02 676.62 369.28 672.61 381.29 677.42 393.3 690.14 405.08 708.82 416.58 730.46 428.07 750.29 438.99 764.71 449.28 771.89 459.5 769.9 469.01 759.26 477.71 742.02 486.27 720.51 493.93 697.96 500.66 677.45 507.23 661.33 512.92 651.08 517.82 647.54 522.84 649.9 527.42 656.69 531.89 666.9 537.19 677.69 543.07 687.03 549.98 694.21 558.61 697.15 568.9 695.36 581.09 689.29 595.18 678.79 610.9 664.76 627.8 648.13 645.03 629.88 661.79 611.1 676.93 592.31 689.5 574.45 698.49 557.99 703.09 542.93 703.68 529.59 700.05 517.84 693.05 507.53 684.94 498.38 676.73 490.03 670.39 482.55 668.32 475.31 671.09 468.02 679.24 461.05 692.52 453.65 709.14 445.69 726.8 437.76 743.04 429.12 754.97 419.72 760.39 410.28 758.85 400.09 750.09 389.17 735.7 378.24 719.19 366.9 703.44 355.26 691.35 343.7 685.3 331.93 685.58 320.09 691.55 308.45 702.2 296.88 714.48 285.55 725.73 274.58 734.4 264.03 737.95 254.07 735.63 244.65 727.91 235.97 715.16 228.18 698.97 220.93 681.12 214.55 663.3 209.02 647.05 203.74 633.58 199.04 623.43 194.72 616.64 187.66 612.86 170.83 615.62 160.18 616.86 151.88 616.47 143.14 614.05 134.22 609.51 125.13 603.37 116.56 595.22 108.87 585.4 102.04 574.38 96.62 562.25 92.74 549.42 89.89 536.05 88.34 522.45 87.82 508.9 87.4 495.25 87.23 481.85 86.96 468.85 85.74 455.89 84.01 443.35 81.79 431.27 78.72 419.23 75.66 407.63 73.04 396.47 70.78 385.31 69.83 374.82 70.4 365 72.07 355.13 75.24 345.89 79.65 337.25 84.49 328.51 89.81 320.29 95.21 312.5 99.86 304.49 104.01 296.73 107.56 289.1 110.05 280.96 112.17 272.68 114.23 264.07 116.04 254.68 118.51 244.75 121.95 234.17 126.19 222.81 131.84 210.9 138.93 198.6 147.09 186.08 156.5 173.74 166.88 161.98 177.8 151.07 189.15 141.53 200.65 133.73 211.92 127.53 222.92 123.31 233.53 120.98 243.47 119.66 252.94 119.37 262.02 119.49 270.4 118.79 278.55 117.21 286.62 114.28 294.2 109.29 301.92 102.8 309.9 95.21 317.63 86.78 325.77 78.76 334.41 72.11 342.93 67.17 352.03 64.93 361.74 65.59 371.4 68.31 381.72 72.99 392.74 78.68" stroke-dasharray="0 0" transform="rotate(11.222222222222221, 400, 400)" opacity="0.65"></path><path d="M406.85 91.82C417.8 96.79 429.23 100.69 441.11 102.96 453.03 102.92 465.43 101.33 478.22 98.77 491.02 95.43 504.12 92.76 517.36 91.53 530.37 91.82 543.22 94.52 555.59 99.63 567.25 106.56 577.91 115.24 587.16 125.02 595.07 135.01 601.06 144.85 604.84 154.03 607.07 165.23 600.74 179.81 595.39 184.44 593.43 186.87 593.28 189.67 595.93 193.15 602.47 197.04 612.86 202.06 627.17 208.24 644.84 215.23 664.82 223.39 685.58 232.55 705.26 242.43 721.99 253.07 733.83 264.23 739.82 275.84 738.97 287.73 731.38 299.72 719.01 311.9 703.14 324.04 686.4 336.02 672.46 348.07 663.16 359.9 660.56 371.44 665.95 383 678.39 394.24 696.11 405.09 716.51 415.94 735.37 426.11 749.52 435.57 757.36 444.99 756.95 453.66 748.53 461.56 733.7 469.4 714.25 476.48 692.92 482.86 672.45 489.3 655.06 495.2 642.39 500.75 635.54 506.74 634.24 512.8 637.63 519.24 645.08 526.74 654.29 535.17 663.45 544.86 671.9 556.08 677.45 568.79 679.29 582.97 677.64 598.28 671.79 614.4 662.23 630.7 649.69 646.34 634.71 660.56 618.23 672.39 600.8 681.29 583.28 686.5 566.3 687.65 549.93 685.57 534.74 680.28 520.84 672.84 508.04 665.45 496.44 658.98 485.85 655.06 476.12 655.57 467 660.68 458.24 670.52 449.93 684.55 441.62 700.97 433.14 717.62 424.79 732.39 416.07 742.79 406.9 747.02 397.73 744.91 388.05 736.27 377.85 722.56 367.66 706.92 357.23 691.83 346.67 679.87 336.18 673.23 325.65 672.3 315.21 676.68 304.96 685.75 294.95 696.91 285.31 707.88 276 717.28 267.21 722.61 259.08 722.87 251.35 718.25 244.35 708.6 238.12 695.02 232.18 678.99 226.92 661.85 222.23 645.11 217.46 629.98 212.95 617.3 208.5 607.45 203.41 600.77 198 596.73 192.08 594.71 185.16 594.65 177.6 595.22 169.46 595.65 160.56 596.12 151.43 595.36 142.38 593.07 133.45 589.73 125.27 584.59 118.18 577.79 112.08 569.89 107.45 560.63 104.35 550.33 102.22 539.34 101.27 527.72 101.19 515.76 101.08 503.52 101.06 491.22 100.81 479.03 99.53 466.79 97.65 454.79 95.23 443.12 91.94 431.46 88.63 420.15 85.75 409.23 83.25 398.31 82.08 388.01 82.44 378.29 83.96 368.53 87.04 359.28 91.42 350.49 96.34 341.55 101.83 332.95 107.48 324.58 112.48 315.91 117 307.27 120.9 298.54 123.67 289.28 125.94 279.72 127.93 269.75 129.45 259.13 131.36 248.03 133.97 236.46 137.15 224.45 141.58 212.22 147.35 200.02 154.18 188.06 162.35 176.71 171.67 166.36 181.76 157.13 192.59 149.47 203.87 143.61 215.26 139.19 226.68 136.49 237.94 135.28 248.78 134.6 259.28 134.46 269.41 134.27 278.95 132.91 288.19 130.46 297.22 126.58 305.74 120.78 314.23 113.7 322.8 105.81 331.05 97.44 339.56 89.74 348.42 83.58 357.11 79.2 366.27 77.46 375.98 78.48 385.63 81.41 395.9 86.15 406.84 91.82" stroke-dasharray="0 0" transform="rotate(14.962962962962962, 400, 400)" opacity="0.79"></path><path d="M419.28 104.96C430.08 109.93 441.19 113.9 452.57 116.36 463.95 116.62 475.57 115.35 487.3 113.03 498.93 109.76 510.52 106.89 521.86 105.15 532.83 104.63 543.23 106.29 552.77 110.22 561.53 115.98 569.03 123.66 574.96 132.74 579.78 142.42 582.82 152.39 584.01 162.12 584.29 170.93 583.1 178.79 580.82 185.6 577.88 193.21 578.99 203.58 587.38 208.08 597.5 211.13 610.91 214.92 627.29 219.58 645.79 224.76 665.31 230.97 684.33 238.15 701.27 245.97 714.57 254.64 722.76 263.99 725.42 273.83 721.96 284.15 712.8 294.77 700.04 305.66 684.84 316.69 669.59 327.7 657.49 338.84 649.96 349.86 648.63 360.65 654.5 371.49 666.62 382.05 683.39 392.26 702.58 402.46 720.48 412.03 734.3 420.95 742.64 429.87 743.63 438.15 737.27 445.83 724.81 453.55 707.53 460.76 687.74 467.58 667.81 474.63 649.76 481.52 635.29 488.47 625.63 496.02 620.95 504.01 620.88 512.7 625.14 522.41 631.99 533.16 639.91 545.07 648.37 558.09 655.25 572.18 659.58 587.1 661.42 602.33 659.66 617.54 654.41 632.01 646.25 645.1 635.24 656.12 622.08 664.33 607.32 669.64 591.61 671.5 575.59 669.91 559.43 666.02 543.77 659.99 528.89 652.93 514.62 646.89 501.34 642.53 489 641.14 477.36 644.07 466.49 651.22 456.23 662.36 446.42 676.78 436.95 692.72 427.66 708.22 418.56 721.48 409.43 730.41 400.19 733.55 390.99 730.93 381.58 722.46 371.96 709.42 362.34 694.63 352.74 680.21 343.22 668.45 333.75 661.33 324.45 659.3 315.41 662.2 306.51 669.66 297.99 679.55 289.94 689.93 282.12 699.63 274.86 706.26 268.23 708.7 261.82 706.9 256.01 700.33 250.82 689.65 245.63 676 240.87 660.37 236.4 644.1 231.56 628.34 226.7 614.03 221.63 601.82 215.77 592.18 209.43 585.03 202.52 580.07 194.68 577.35 186.3 575.92 177.49 575.13 168.21 575.1 158.95 574.67 150.04 573.4 141.54 571.72 133.99 568.69 127.68 564.28 122.44 559.04 118.68 552.45 116.39 544.7 114.95 536.27 114.54 526.95 114.84 516.98 114.94 506.65 115 495.94 114.69 485.04 113.29 474.01 111.24 462.95 108.6 451.99 105.1 441.01 101.58 430.18 98.47 419.55 95.75 408.93 94.36 398.74 94.51 388.96 95.84 379.14 98.76 369.64 103.05 360.41 107.99 351.02 113.59 341.77 119.45 332.55 124.78 323.03 129.7 313.38 134.01 303.51 137.19 293.21 139.75 282.58 141.87 271.57 143.31 260.17 144.87 248.46 146.87 236.56 149.14 224.61 152.45 212.8 156.92 201.43 162.33 190.67 169.08 180.86 177.05 172.32 185.93 165 195.77 159.27 206.32 155.23 217.29 152.34 228.58 150.8 239.97 150.3 251.27 149.86 262.41 149.49 273.31 148.69 283.82 146.5 294.06 143.08 304.04 138.28 313.61 131.76 323.03 124.22 332.39 116.19 341.44 108 350.58 100.72 359.91 95.11 369.06 91.31 378.53 90.07 388.39 91.43 398.19 94.55 408.46 99.33 419.27 104.96" stroke-dasharray="0 0" transform="rotate(18.703703703703702, 400, 400)" opacity="0.12"></path><path d="M426.98 118.1C437.49 123.05 448.06 127.08 458.63 129.71 469.18 130.27 479.65 129.34 489.92 127.3 500.03 124.19 509.76 121.24 518.91 119.11 527.66 117.9 535.56 118.58 542.39 121.36 548.54 125.89 553.39 132.41 556.79 140.53 559.45 149.57 560.71 159.29 560.7 169.18 560.44 178.59 559.49 187.39 558.32 195.35 558.16 202.07 558.87 207.84 561.12 212.81 565.85 216.7 573.06 220.19 583.08 223.53 595.96 226.45 611.35 229.72 628.66 233.5 646.88 237.46 664.98 242.2 681.54 247.76 695.35 253.75 705.13 260.56 709.87 268.11 709.62 276.07 704.05 284.64 693.84 293.66 681.07 302.97 666.82 312.58 653.18 322.35 642.88 332.26 637.01 342.22 636.82 352.12 643.08 362.06 654.84 371.87 670.67 381.46 688.69 391.06 705.61 400.2 719.03 408.89 727.75 417.6 729.95 425.89 725.49 433.84 715.3 441.9 700.27 449.76 682.26 457.54 663.3 465.64 645.18 473.91 629.55 482.52 617.66 491.75 610.04 501.61 606.67 512.24 607.58 523.68 611.54 536 617.4 549.17 624.76 562.9 631.73 577.12 637.3 591.47 641.46 605.43 642.86 618.61 641.29 630.38 637.24 640.34 630.32 647.91 620.96 652.62 609.71 654.76 596.89 653.96 583.06 650.5 568.51 645.72 553.75 639.79 539.19 633.83 524.73 629.61 510.84 627.57 497.66 628.66 484.89 633.78 472.83 642.6 461.45 654.65 450.43 669.1 439.92 684.33 429.83 698.56 419.94 710.32 410.3 717.83 400.85 719.98 391.46 716.94 382.16 708.65 372.93 696.28 363.7 682.33 354.75 668.59 346.11 657.08 337.48 649.59 329.21 646.6 321.34 648.1 313.54 653.98 306.2 662.49 299.38 672.02 292.65 681.62 286.45 689.08 280.79 693.23 275.14 693.89 269.93 690.21 265.12 682.5 260.07 671.6 255.2 658.13 250.36 643.18 244.95 627.79 239.31 612.88 233.3 599.2 226.46 587.32 219.1 577.49 211.21 569.69 202.57 564.07 193.57 560.07 184.37 557.21 175.01 555.61 165.93 554.29 157.46 552.82 146.28 550.49 131.83 540.7 128.9 532.73 128.1 526.55 128.15 519.39 128.73 511.4 128.95 503.07 128.99 494.12 128.57 484.71 127 475.14 124.74 465.27 121.89 455.22 118.21 445.13 114.49 434.94 111.19 424.71 108.28 414.47 106.68 404.42 106.6 394.55 107.71 384.65 110.44 374.85 114.58 365.12 119.45 355.26 125.1 345.36 131.1 335.34 136.73 325.1 142.03 314.65 146.79 303.96 150.45 293 153.45 281.78 155.87 270.35 157.44 258.81 158.9 247.22 160.52 235.75 162.14 224.58 164.51 213.89 167.82 203.96 171.87 194.87 177.13 186.93 183.6 180.37 191 174.96 199.48 171.02 208.86 168.5 218.88 166.75 229.47 165.94 240.43 165.7 251.58 165.09 262.82 164.18 274 162.54 285.04 159.39 295.91 155.01 306.58 149.35 316.98 142.24 327.2 134.41 337.28 126.39 347.12 118.5 356.92 111.73 366.75 106.71 376.44 103.52 386.26 102.76 396.27 104.44 406.23 107.72 416.45 112.52 426.97 118.1" stroke-dasharray="0 0" transform="rotate(22.444444444444443, 400, 400)" opacity="0.80"></path><path d="M428.07 131.25C438.13 136.15 447.98 140.23 457.55 143.02 467.07 143.87 476.24 143.29 484.93 141.58 493.44 138.71 501.32 135.76 508.43 133.37 518.07 131.51 531.5 139.02 535.03 148.62 536.71 156.73 537.5 165.84 537.65 175.49 538.15 185.09 538.65 194.45 539.64 203.29 542.08 211.17 545.87 218.23 551.5 224.48 559.47 229.65 569.74 234.2 582.33 238.33 596.96 241.79 613.19 245.23 630.28 248.85 647.26 252.3 663.15 256.24 676.77 260.76 687.26 265.45 693.64 270.83 695.27 276.89 692.57 283.21 685.43 290.17 674.64 297.67 662.25 305.39 649.16 313.55 637.18 322.03 628.64 330.64 624.3 339.46 625.12 348.43 631.68 357.42 643.05 366.49 657.96 375.57 674.82 384.65 690.78 393.52 703.74 402.19 712.7 410.88 715.94 419.45 713.19 427.94 705.16 436.58 692.38 445.29 676.33 454.18 658.71 463.39 641.05 472.97 624.86 483.03 611.41 493.59 601.38 504.77 595.06 516.61 592.71 528.91 593.55 541.77 596.79 555.01 602.18 568.28 608.16 581.44 613.76 594.1 618.96 605.83 622.35 616.25 623.52 624.86 622.84 631.55 619.59 635.84 613.97 637.51 606.5 637.17 597.12 634.58 586.29 630.19 574.36 625.37 561.65 620.31 548.58 615.98 535.17 613.87 521.87 614.2 508.88 617.6 495.99 624.6 483.6 634.69 471.76 647.25 460.14 661.44 449.04 675.74 438.46 688.62 428.02 698.88 418 705.07 408.37 706.31 398.79 702.92 389.51 694.85 380.53 683.14 371.55 670.01 363.04 656.96 355 645.75 346.96 638 339.38 634.17 332.3 634.4 325.2 638.74 318.6 645.8 312.48 654.28 306.32 663.44 300.6 671.27 295.28 676.65 289.79 679.31 284.56 678.21 279.5 673.36 274.05 665.37 268.55 654.48 262.9 641.53 256.59 627.4 249.94 612.87 242.85 598.73 235.03 585.55 226.75 573.78 218.07 563.65 208.9 555.35 199.59 548.68 190.35 543.37 181.24 539.52 172.67 536.44 164.93 533.75 155.15 530.57 143.67 522.2 141.92 516.06 141.67 511.42 142.08 505.88 142.82 499.5 143.07 492.87 143.01 485.5 142.41 477.51 140.64 469.37 138.17 460.72 135.11 451.65 131.25 442.53 127.38 433.08 123.9 423.32 120.83 413.57 119.03 403.76 118.72 393.91 119.6 384.05 122.09 374.09 126.01 364.04 130.75 353.92 136.35 343.63 142.43 333.16 148.29 322.59 153.94 311.8 159.14 300.84 163.34 289.82 166.85 278.69 169.73 267.56 171.65 256.6 173.24 245.85 174.76 235.51 176.01 225.72 177.71 216.66 180.09 208.57 182.94 201.39 186.83 195.42 191.8 190.77 197.61 187.05 204.51 184.55 212.41 183.13 221.04 182.06 230.45 181.5 240.43 181.09 250.83 179.96 261.55 178.24 272.42 175.62 283.4 171.49 294.36 166.19 305.22 159.8 316.01 152.27 326.65 144.31 337.13 136.45 347.49 128.99 357.73 122.8 367.87 118.42 377.93 115.82 387.96 115.54 397.97 117.52 407.97 120.94 418 125.74 428.06 131.24" stroke-dasharray="0 0" transform="rotate(26.185185185185183, 400, 400)" opacity="0.42"></path><path d="M422.29 144.39C431.75 149.24 440.77 153.34 449.3 156.28 457.78 157.42 465.69 157.2 472.96 155.85 483.27 151.85 499.5 145.26 505.19 145.5 508.48 147.6 510.95 151.57 512.7 157.25 514.56 164.2 516.07 172.39 517.51 181.42 519.73 190.77 522.49 200.27 526.2 209.57 531.49 218.29 538.33 226.41 546.97 233.85 557.56 240.34 570.01 246.16 584.1 251.42 599.36 255.89 615.32 260.07 631.19 264.14 646.13 267.8 659.29 271.65 669.71 275.81 678.53 282.18 670.39 297.63 655.38 306.82 643.67 313.25 631.91 320.17 621.62 327.54 614.76 334.98 611.83 342.79 613.53 350.91 620.3 359.06 631.24 367.48 645.24 376.13 660.99 384.78 675.98 393.48 688.42 402.21 697.51 410.99 701.61 419.88 700.39 428.92 694.38 438.09 683.8 447.53 669.81 457.3 653.83 467.31 637.07 477.76 620.93 488.67 606.56 499.86 594.75 511.52 585.99 523.57 580.67 535.71 578.43 548 578.77 560.2 581.62 571.96 585.74 583.12 590.33 593.29 600.58 612.72 594.13 615.94 583.6 609.78 574.83 605.7 564.89 602.09 554.15 599.76 542.78 599.88 531.06 602.48 519.24 607.91 507.26 616.4 495.45 627.35 483.95 640.05 472.5 653.68 461.44 666.89 450.83 678.36 440.3 687.17 430.2 692.12 420.55 692.55 410.93 688.87 401.71 681.05 392.89 670 384.07 657.67 375.82 645.32 368.11 634.46 360.36 626.55 353.13 622.02 346.38 621.1 339.57 623.98 333.2 629.56 327.23 636.83 321.12 645.25 315.31 653.05 309.75 659.16 303.9 663.33 298.14 664.39 292.37 662.15 286.13 657.01 279.7 648.9 273.01 638.39 265.7 626.22 258.02 612.95 249.95 599.31 241.32 585.86 232.39 573.11 223.25 561.44 213.91 551.07 204.68 542.08 195.79 534.4 187.28 528.12 179.53 522.86 172.77 518.32 164.62 512.99 156.15 503.07 155.44 497.35 155.95 491.01 157.14 474.66 156.18 464.65 154.19 457.66 151.49 450.05 148.23 441.88 144.23 433.68 140.23 424.96 136.62 415.78 133.41 406.59 131.43 397.17 130.89 387.54 131.51 377.92 133.72 368.09 137.37 358.07 141.9 348.04 147.38 337.8 153.45 327.41 159.45 317.03 165.39 306.52 171 295.96 175.73 285.53 179.82 275.17 183.25 265.05 185.68 255.28 187.64 245.95 189.32 237.27 190.5 229.23 191.86 222.07 193.62 215.95 196.93 208.56 208.85 200.25 217.77 198.66 224.77 197.78 232.64 197.02 241.23 196.05 250.36 194.13 260 191.45 269.99 187.78 280.27 182.71 290.72 176.61 301.21 169.66 311.79 161.89 322.32 153.98 332.73 146.44 343.15 139.51 353.43 133.96 363.54 130.25 373.64 128.25 383.6 128.41 393.39 130.67 403.18 134.2 412.83 138.97 422.28 144.38" stroke-dasharray="0 0" transform="rotate(29.925925925925924, 400, 400)" opacity="0.54"></path><path d="M411.06 157.53C419.81 162.3 428 166.42 435.6 169.49 443.16 170.9 450.07 171.03 456.29 170.06 465.12 166.52 479 159.47 484.17 158.58 488.87 160.94 497.36 175.79 502.37 187.37 506.81 196.06 512.13 205.23 518.59 214.55 526.52 223.66 535.9 232.46 546.8 240.81 559.11 248.43 572.66 255.47 587.13 261.94 601.95 267.64 616.65 272.92 630.51 277.9 642.86 282.32 652.99 286.68 660.19 291.12 664.31 295.28 664.81 299.7 661.61 304.47 655.6 309.16 646.84 314.29 636.21 319.9 625.44 325.51 615.13 331.61 606.53 338.18 601.25 344.78 599.58 351.82 602.04 359.31 608.93 366.79 619.41 374.69 632.53 382.99 647.19 391.3 661.22 399.84 673.11 408.6 682.2 417.39 686.99 426.46 687.1 435.8 682.93 445.24 674.48 455.03 662.6 465.16 648.46 475.41 632.99 486.03 617.41 496.97 602.75 507.96 589.83 519.15 579.23 530.39 571.43 541.42 566.37 552.2 563.84 562.46 563.86 572.02 565.58 580.61 568.36 587.94 579.38 597.35 565.27 586.46 553.76 585.41 544.98 587.7 535.5 592.34 525.58 599.44 515.3 609.01 504.85 620.41 494.42 632.9 483.88 645.73 473.51 657.73 463.4 667.76 453.31 675.18 443.52 678.99 434.1 678.71 424.71 674.81 415.66 667.27 406.99 656.86 398.32 645.32 390.2 633.67 382.58 623.21 374.91 615.22 367.71 610.12 360.92 608.18 354.03 609.7 347.47 613.84 341.2 619.8 334.73 627.24 328.42 634.63 322.21 641.02 315.66 646.18 309.07 648.92 302.35 648.9 295.17 646.38 287.76 641.02 280.05 633.18 271.86 623.43 263.37 612.1 254.6 599.8 245.52 587.04 236.33 574.31 227.16 562.04 218.08 550.48 209.34 539.88 201.17 530.33 193.58 521.91 186.9 514.5 181.3 507.95 174.9 499.81 169.29 486.2 169.44 479.67 170.31 473.16 171.23 457.84 169.87 448.76 167.63 442.48 164.72 435.61 161.28 428.15 157.15 420.67 153.05 412.63 149.34 404.06 146.01 395.48 143.87 386.59 143.1 377.43 143.46 368.3 145.36 358.92 148.69 349.35 152.95 339.82 158.22 330.14 164.18 320.38 170.23 310.72 176.37 301.07 182.3 291.54 187.53 282.25 192.19 273.23 196.24 264.62 199.29 256.46 201.8 248.9 203.88 242.09 205.96 233.27 210.47 221.24 214 217.96 218.89 215.81 233.95 212.69 244.01 210.21 251.55 207.33 259.72 203.6 268.37 198.93 277.43 193.03 286.81 186.31 296.38 179 306.17 171.19 316.04 163.5 325.87 156.42 335.8 150.12 345.65 145.26 355.33 142.22 365.05 140.8 374.6 141.39 383.9 143.88 393.22 147.49 402.29 152.22 411.05 157.52" stroke-dasharray="0 0" transform="rotate(33.666666666666664, 400, 400)" opacity="0.73"></path><path d="M397.11 170.67C405.13 175.36 412.59 179.46 419.48 182.64 429.47 184.54 446.41 181.21 453.45 177.61 460.07 174.1 471.96 173.14 477.99 176.96 482.63 181.23 487.7 186.9 493.42 193.77 500.12 201.44 507.78 209.86 516.56 218.74 526.5 227.74 537.59 236.74 549.77 245.56 562.72 253.95 576.3 261.93 590.07 269.45 603.53 276.34 616.21 282.78 627.51 288.85 640.5 296.99 648.71 311.99 643.02 319.41 636.16 324.21 627.3 329.29 617.28 334.71 607.67 340.05 598.86 345.79 591.9 351.97 588.08 358.11 587.55 364.71 590.64 371.77 597.57 378.82 607.57 386.34 619.81 394.35 633.41 402.36 646.5 410.69 657.79 419.3 666.78 427.94 672.11 436.9 673.36 446.15 670.84 455.45 664.38 465.04 654.6 474.88 642.42 484.73 628.54 494.77 613.96 504.9 599.61 514.89 586.22 524.8 574.43 534.43 564.76 543.64 557.35 552.29 552.19 560.14 558.42 577.46 554.01 570.95 546.45 573.06 540.33 577.32 533.32 583.66 525.61 592.02 517.46 602.25 508.87 613.71 500 625.68 490.93 637.52 481.76 648.21 472.62 656.83 463.42 662.92 454.33 665.69 445.43 664.79 436.53 660.74 427.84 653.48 419.38 643.72 410.93 632.95 402.89 622 395.23 611.97 387.54 604.01 380.17 598.46 373.1 595.65 365.91 595.93 358.92 598.66 352.08 603.27 345.04 609.56 338.03 616.24 331 622.5 323.67 628.16 316.21 632.05 308.57 633.77 300.57 633.48 292.35 630.66 283.9 625.46 275.15 618.35 266.23 609.38 257.21 599.05 248.12 587.81 239.14 576.01 230.42 564.1 222 552.34 214.14 541.03 207.01 530.39 200.59 520.49 195.14 511.4 190.8 503.1 187.32 495.62 184.96 488.78 183.69 482.45 183.08 473.98 184.88 458.2 185.83 450.21 185.62 444.93 184.86 439.29 183.45 433.23 180.95 427.2 177.83 420.7 174.23 413.71 170.01 406.72 165.84 399.23 162.05 391.26 158.64 383.29 156.35 375.04 155.37 366.57 155.45 358.13 157.03 349.5 160 340.75 163.92 332.09 168.9 323.37 174.65 314.7 180.64 306.2 186.86 297.84 193.03 289.75 198.66 281.96 203.86 274.57 208.52 267.71 213.84 258.41 220.79 244.18 223.17 239.43 228.16 233.87 242.05 227.14 249.7 223.22 255.54 219.31 262.05 214.59 269.13 209.04 276.62 202.49 284.56 195.36 292.82 187.91 301.36 180.25 310.09 172.96 318.91 166.46 327.89 160.85 336.86 156.73 345.74 154.35 354.71 153.49 363.52 154.46 372.1 157.16 380.72 160.82 389.08 165.48 397.1 170.66" stroke-dasharray="0 0" transform="rotate(37.407407407407405, 400, 400)" opacity="0.37"></path><path d="M383.87 183.81C391.2 188.39 398.09 192.47 404.52 195.73 413.93 198.03 430.67 195.88 438.23 192.67 445.78 189.07 461.14 186.22 469.65 188.33 476.06 191.24 483.05 195.52 490.78 201.02 499.32 207.42 508.73 214.75 519.04 222.76 530.09 231.15 541.9 239.85 554.27 248.63 566.84 257.29 579.44 265.77 591.65 273.97 603.03 281.75 613.21 289.17 621.66 296.25 628.2 302.83 632.35 309.14 633.82 315.23 632.98 320.92 629.51 326.53 623.65 332.14 616.42 337.49 607.87 342.96 598.75 348.62 590.42 354.14 583.14 359.94 577.74 366.06 575.27 372.12 575.72 378.56 579.32 385.41 586.21 392.23 595.71 399.49 607.1 407.2 619.67 414.91 631.82 422.91 642.48 431.16 651.28 439.42 656.98 447.94 659.18 456.66 658.12 465.37 653.5 474.24 645.73 483.19 635.57 492.05 623.47 500.89 610.26 509.57 596.71 517.99 583.46 526.07 571.15 533.64 560.28 540.7 551.11 547.01 543.79 552.39 537.89 559.44 537.03 557.65 532.6 562.72 528.75 568.64 523.98 576.27 518.4 585.43 512.41 595.91 505.79 607.07 498.67 618.27 491.33 628.96 483.64 638.29 475.74 645.53 467.75 650.39 459.64 652.22 451.48 650.79 443.32 646.64 435.15 639.71 427.02 630.58 418.9 620.56 410.99 610.31 403.3 600.76 395.58 592.89 388.03 587.03 380.61 583.49 373.1 582.67 365.65 584.09 358.21 587.34 350.62 592.36 342.97 598.1 335.22 603.87 327.26 609.56 319.14 614.1 310.86 617.03 302.38 618.5 293.74 617.84 284.98 615.06 276.14 610.53 267.28 604.1 258.52 596.1 249.92 586.94 241.61 576.81 233.75 566.1 226.37 555.07 219.68 544.01 213.82 533.19 208.7 522.68 204.56 512.67 201.47 503.25 199.12 494.38 197.75 486.11 197.29 478.37 197.21 471.16 197.72 464.33 198.62 457.79 199.28 451.6 199.88 445.52 200.21 439.45 199.7 433.55 198.61 427.53 196.88 421.31 194.13 415.16 190.82 408.73 187.08 401.99 182.81 395.26 178.6 388.19 174.77 380.78 171.3 373.37 168.88 365.81 167.7 358.15 167.51 350.51 168.74 342.82 171.32 335.14 174.85 327.55 179.46 320.05 184.92 312.72 190.73 305.57 196.91 298.69 203.19 292.2 209.11 285.97 214.74 280.22 219.95 275.05 230.77 263.02 240.44 251.89 242.82 249.82 245.34 247.37 253.11 240.32 258.7 234.83 262.99 229.96 267.92 224.37 273.42 218.13 279.28 211.15 285.64 203.85 292.4 196.49 299.43 189.18 306.77 182.44 314.3 176.62 322.02 171.77 329.84 168.38 337.66 166.66 345.59 166.32 353.46 167.65 361.18 170.51 368.95 174.2 376.53 178.77 383.86 183.8" stroke-dasharray="0 0" transform="rotate(41.148148148148145, 400, 400)" opacity="0.60"></path><path d="M374.58 196.95C381.32 201.41 387.79 205.44 394 208.75 400.22 210.85 406.21 212 412 212.22 417.85 211.26 423.6 209.7 429.29 207.78 435.18 205.39 441.15 203.23 447.32 201.58 453.85 200.3 460.73 200 468.08 200.8 475.94 202.47 484.4 205.38 493.51 209.47 503.17 214.46 513.47 220.45 524.33 227.27 535.52 234.66 547.02 242.57 558.58 250.81 569.88 259.19 580.73 267.63 590.73 276.01 599.64 284.21 607.08 292.21 612.69 299.96 616.49 307.38 618.08 314.55 617.35 321.48 614.8 328.09 610.18 334.53 603.81 340.87 596.65 346.96 588.74 353.04 580.73 359.16 573.76 365.14 568 371.25 564.06 377.55 562.78 383.77 564.08 390.24 568.07 396.99 574.86 403.72 583.83 410.76 594.38 418.14 605.96 425.51 617.19 433.06 627.19 440.73 635.71 448.4 641.64 456.18 644.6 464 644.79 471.77 641.81 479.53 635.95 487.17 627.79 494.66 617.59 501.92 605.99 508.84 593.65 515.44 581.09 521.54 568.88 526.99 557.48 531.96 547.22 536.15 538.34 539.43 518.37 541.76 516.32 546.65 513.79 554.27 511.52 561.44 508.42 569.91 504.54 579.44 500.36 589.77 495.48 600.33 489.99 610.54 484.29 619.99 478.1 627.95 471.5 633.86 464.8 637.58 457.78 638.58 450.51 636.72 443.21 632.54 435.71 625.95 428.05 617.44 420.38 608.15 412.74 598.6 405.12 589.56 397.49 581.87 389.86 575.81 382.23 571.69 374.54 569.91 366.79 570.12 358.97 572.07 351.07 575.79 343.05 580.42 334.91 585.41 326.67 590.74 318.31 595.43 309.84 599.06 301.34 601.74 292.78 602.75 284.25 602 275.82 599.79 267.55 595.81 259.54 590.24 251.85 583.44 244.61 575.44 237.96 566.54 231.87 557.01 226.53 547.05 222.05 536.93 218.26 526.73 215.38 516.69 213.44 506.94 212.08 497.46 211.52 488.39 211.66 479.76 211.99 471.49 212.7 463.61 213.61 456.09 214.14 448.86 214.48 441.88 214.48 435.07 213.62 428.45 212.19 421.89 210.14 415.34 207.17 408.87 203.68 402.33 199.84 395.68 195.54 389.06 191.32 382.29 187.48 375.37 183.98 368.46 181.46 361.57 180.09 354.73 179.64 347.92 180.52 341.21 182.68 334.65 185.78 328.16 189.96 321.89 195.03 315.91 200.56 310.07 206.56 304.59 212.81 299.55 218.88 294.69 224.81 290.32 230.46 286.49 237.75 281.28 248.86 273.57 252.85 270.78 258.22 264.92 266.77 251.89 270.9 244.91 273.99 239.23 277.62 232.99 281.78 226.31 286.17 219.16 291.06 211.94 296.38 204.89 301.93 198.1 307.83 192.03 314.03 186.98 320.39 182.91 326.95 180.26 333.65 179.16 340.43 179.3 347.27 180.94 354.12 183.93 361 187.61 367.83 192.07 374.57 196.94" stroke-dasharray="0 0" transform="rotate(44.888888888888886, 400, 400)" opacity="0.79"></path><path d="M371.51 210.09C377.78 214.41 383.98 218.36 390.13 221.71 396.3 223.99 402.45 225.43 408.61 226.03 414.86 225.53 421.19 224.41 427.66 222.87 434.32 220.76 441.23 218.7 448.45 216.93 455.96 215.3 463.88 214.39 472.24 214.35 480.95 214.97 490.14 216.65 499.78 219.39 509.68 222.94 519.93 227.49 530.38 232.93 540.78 239 551.09 245.76 561.05 253.02 570.43 260.62 579.02 268.49 586.51 276.51 592.8 284.57 597.56 292.61 600.55 300.56 601.98 308.36 601.51 315.99 599.13 323.45 595.43 330.69 590.22 337.77 583.8 344.7 577.11 351.44 570.1 358.09 563.33 364.68 557.76 371.14 553.45 377.62 550.85 384.14 550.62 390.59 552.61 397.15 556.88 403.83 563.51 410.49 571.94 417.3 581.66 424.28 592.28 431.26 602.6 438.23 611.93 445.17 620.09 452.09 626.12 458.95 629.65 465.68 630.88 472.33 629.35 478.8 625.22 484.98 618.98 491 610.7 496.64 600.88 501.8 590.06 506.7 578.61 511.01 567.04 514.66 555.76 517.97 545.09 520.54 535.32 522.36 522.95 524.28 506.12 524.78 501.25 524.06 497.48 525.2 494.46 537.9 492.53 547.47 490.99 555.44 488.81 564.31 485.99 573.79 483 583.63 479.37 593.33 475.13 602.4 470.75 610.54 465.81 617.16 460.36 621.82 454.82 624.52 448.84 624.8 442.47 622.6 436.06 618.43 429.29 612.19 422.2 604.3 415.11 595.73 407.88 586.87 400.52 578.36 393.17 570.93 385.7 564.78 378.11 560.22 370.51 557.64 362.79 556.79 354.95 557.52 347.09 559.94 339.12 563.37 331.06 567.39 323.01 572.03 314.9 576.46 306.78 580.28 298.76 583.62 290.81 585.77 283.03 586.55 275.48 586.23 268.22 584.38 261.36 581.08 254.91 576.64 249.01 570.94 243.76 564.19 239.07 556.66 235.13 548.41 232 539.69 229.45 530.62 227.7 521.38 226.73 512.13 226.14 502.88 226.17 493.8 226.7 484.98 227.22 476.31 227.94 467.95 228.7 459.9 228.97 452.04 228.98 444.46 228.58 437.14 227.35 429.95 225.56 422.96 223.21 416.12 220.03 409.35 216.41 402.68 212.51 396.08 208.21 389.51 204.02 382.97 200.2 376.48 196.69 369.98 194.1 363.68 192.56 357.59 191.85 351.51 192.38 345.67 194.12 340.1 196.75 334.57 200.45 329.36 205.06 324.5 210.19 319.72 215.89 315.33 221.95 311.37 228 307.49 234.07 304.04 240 301.03 248.05 296.76 261.25 289.78 266.37 286.7 270.25 283.17 276.49 274.53 279.38 268.86 281.17 264.23 283.21 259.09 285.58 253.45 287.95 247.19 290.73 240.58 293.93 233.74 297.23 226.7 300.98 219.79 305.14 213.25 309.43 207.14 314.11 201.84 319.13 197.59 326.96 193.35 343.98 193.39 352.98 197.41 359.05 201.07 365.23 205.39 371.5 210.08" stroke-dasharray="0 0" transform="rotate(48.629629629629626, 400, 400)" opacity="0.17"></path><path d="M375.41 223.23C381.32 227.39 387.35 231.25 393.48 234.6 399.64 237.03 405.94 238.72 412.41 239.68 418.95 239.62 425.72 238.97 432.73 237.86 439.88 236.13 447.34 234.3 455.12 232.59 463.08 230.83 471.4 229.55 480.05 228.91 488.85 228.7 497.94 229.36 507.23 230.9 525.74 236.04 543.95 244.75 560.31 256.23 573.71 269.46 582.59 284.08 585.48 299.19 585.04 306.82 583.06 314.41 579.61 321.91 575.33 329.34 570.01 336.65 563.96 343.82 558.02 350.9 552.1 357.86 546.65 364.7 542.45 371.47 539.49 378.16 538.08 384.78 538.75 391.36 541.31 397.92 545.75 404.45 552.16 410.97 560.02 417.49 568.95 424 578.63 430.51 588.07 436.85 596.7 442.99 604.44 449.12 610.44 455.02 614.38 460.64 616.29 468.82 605.88 483.12 594.7 489 585.58 492.57 575.58 495.58 565.09 498.01 554.48 500.25 544.04 501.93 534.05 503.06 516.25 505.17 502.04 505.93 491.48 506.41 484.64 509.14 480 513.98 476.24 522.11 474.9 527.84 473.43 534.49 471.71 542 470.09 550.31 468.09 559.14 465.63 568.19 463.15 577.26 460.16 585.91 456.65 593.75 451.03 603.24 437.17 611.04 429.02 608.41 423.41 604.31 417.37 598.45 410.92 591.16 404.47 583.29 397.79 575.12 390.91 567.16 384.04 560.04 376.98 553.92 369.77 549.06 362.59 545.84 355.26 544.09 347.82 543.72 340.43 544.9 332.96 547.11 325.46 550.03 318.06 553.75 310.69 557.57 303.41 561.16 296.32 564.65 289.41 567.38 282.78 569.14 270.44 570.35 259.85 566.54 251.72 558.21 245.51 546.73 242.02 532.37 241.21 516.53 241.16 508.26 241.53 499.92 242.2 491.63 242.71 483.32 243.27 475.15 243.74 467.18 243.67 459.27 243.26 451.59 242.44 444.15 240.82 436.79 238.7 429.65 236.07 422.73 232.72 415.87 229.01 409.19 225.07 402.7 220.82 396.23 216.69 389.93 212.92 383.8 208.11 374.76 204.26 358.26 205.67 350.83 207.81 346 210.99 341.52 215.06 337.41 219.7 333.3 224.98 329.57 230.71 326.19 236.58 322.81 242.6 319.75 248.63 317 254.38 314.16 259.93 311.55 265.19 309.1 274.09 303.49 281.59 297.77 287.94 291.27 292.45 282.59 296.8 272.35 301.56 260.58 303.72 254.05 306.14 247.36 308.86 240.66 311.56 233.97 314.61 227.59 318.02 221.74 323.37 214.18 335.89 205.41 342.99 204.79 347.85 205.74 353 207.85 358.41 210.97 363.83 214.56 369.5 218.73 375.4 223.22" stroke-dasharray="0 0" transform="rotate(52.37037037037037, 400, 400)" opacity="0.10"></path><path d="M385.34 236.37C396.59 243.83 408.77 249.71 421.81 253.15 435.06 253.02 449.43 251.08 464.8 248.42 480.42 244.97 496.83 243.24 513.36 244.02 529.1 246.74 543.58 252.64 555.42 261.28 564.24 271.77 568.67 284.09 567.91 297.43 563.68 311.39 555.36 325.57 544.58 339.51 535.25 353.42 528.18 366.94 525.76 379.93 530.35 392.87 541 405.4 556.23 417.37 574 429.34 589.19 440.13 598.82 449.56 602.52 458.8 598.29 466.42 587.26 472.23 571.65 477.73 552.98 481.48 533.71 483.74 515.48 486.49 499.48 488.88 486.27 491.9 476.04 497.41 468.12 505.21 461.66 515.88 456.88 529.75 452.13 545.76 446.66 562.39 441.52 578.07 434.96 590.26 426.76 596.66 418.5 597.14 408.55 590.55 396.96 578.02 385.38 563.55 372.86 549.37 359.75 538.18 346.82 532.24 333.52 531.02 320.33 533.54 307.7 539.55 295.67 545.79 284.87 550.39 275.28 553.53 267.55 552.82 262.14 548.24 258.17 540.95 256.43 530.52 256.68 518.02 257.02 504.23 257.95 489.66 258.59 475.1 256.97 460.39 253.73 446.19 248.71 432.81 241.24 419.51 233.11 406.99 225.63 395.4 219.22 383.81 216.31 373.63 217.34 364.81 221.41 355.93 229.04 348.32 239.22 341.86 250.37 335.06 262.14 328.97 273.6 323.2 283.62 316.29 292.53 308.87 300.34 300.5 306.39 290.3 311.9 278.88 317.37 266.55 321.96 253.52 327.23 241.07 333.5 230.5 339.56 222.25 346.9 217.84 355.55 217.94 364.15 221.15 374.07 227.75 385.33 236.36" stroke-dasharray="0 0" transform="rotate(56.111111111111114, 400, 400)" opacity="0.17"></path><path d="M398.85 249.51C409.59 256.66 421.33 262.55 433.93 266.43 446.63 267.17 460.22 266.18 474.37 264.26 488.39 261.13 502.5 259 515.95 258.61 528.2 259.43 538.56 262.89 546 268.82 550.79 276.4 551.69 285.98 548.47 296.93 543.11 308.76 535.09 321.23 525.93 333.83 518.86 346.67 514.27 359.31 513.85 371.45 519.29 383.63 529.61 395.27 543.52 406.14 559.54 417.01 573.5 426.53 583.03 434.61 587.94 442.62 586.21 449.13 578.44 454.19 566.34 459.3 550.7 463.29 533.47 466.6 516.07 470.84 499.63 475.45 484.99 481.16 472.38 489.19 461.77 499.27 452.78 511.54 445.4 525.87 438.65 541.22 431.93 556.15 425.78 569.46 418.91 579.16 411.02 583.55 403.18 582.94 394.1 576.4 383.75 564.88 373.4 551.73 362.38 538.55 351.02 527.55 339.86 520.7 328.65 517.71 317.84 518.09 307.62 521.94 298.27 526.75 290.31 531 280.78 535.58 272.41 527.4 272.8 515.08 273.04 504.73 273.36 493.04 273.09 480.76 270.59 468.06 266.6 455.36 261.1 443.1 253.57 430.82 245.61 419.12 238.35 408.22 232.04 397.32 228.85 387.66 229.18 379.17 232.22 370.55 238.63 362.89 247.61 355.97 257.87 348.56 269.17 341.42 280.66 334.19 291.34 325.86 301.3 316.87 310.38 307 317.97 295.84 324.91 283.93 331.52 271.75 337.11 259.59 342.98 248.54 349.44 239.71 355.49 233.21 362.52 230.28 370.7 231.31 378.75 234.9 388.1 241.34 398.84 249.5" stroke-dasharray="0 0" transform="rotate(59.85185185185185, 400, 400)" opacity="0.74"></path><path d="M412.64 262.65C422.82 269.45 433.77 275.28 445.3 279.49 456.83 281.02 468.8 281 480.82 279.94 492.45 277.45 503.55 275.38 513.44 274.4 525.3 274.74 533.13 287.45 527.89 299.17 522.39 308.4 515.41 318.57 508.22 329.21 503.44 340.23 501.09 351.32 502.32 362.13 508.36 373.05 518.2 383.52 530.8 393.29 545.14 403.06 557.83 411.62 567.04 418.95 572.76 426.3 573.05 432.52 568.18 437.78 559.44 443.34 547.06 448.4 532.51 453.39 516.96 459.46 501.32 466.28 486.52 474.33 472.82 484.2 460.56 495.66 449.71 508.52 440.14 522.4 431.48 536.4 423.34 549.23 415.83 560.11 408.21 567.46 400.21 570.1 392.33 568.63 383.78 562.25 374.51 551.74 365.25 539.88 355.75 527.77 346.29 517.15 336.99 509.71 327.99 505.3 319.67 503.77 300.84 511.74 288.65 514.63 289.15 506.99 288.89 500.01 288.37 491.41 287.09 481.79 283.74 471.64 279.09 461.02 273.24 450.35 265.76 439.58 258.05 429.01 251.06 418.86 244.92 408.71 241.52 399.42 241.21 390.92 243.26 382.28 248.4 374.19 256.05 366.44 265.13 358.2 275.56 349.9 286.59 341.3 297.37 331.83 307.87 321.74 317.79 311.05 326.65 299.64 334.91 287.98 342.71 276.62 349.59 265.81 356.44 256.48 363.54 249.49 370.16 244.7 377.42 243.11 385.52 244.93 393.46 248.76 402.47 254.98 412.64 262.65" stroke-dasharray="0 0" transform="rotate(63.592592592592595, 400, 400)" opacity="0.69"></path><path d="M423.34 275.79C432.82 282.19 442.65 287.88 452.65 292.32 462.56 294.54 472.41 295.42 481.82 295.28 508.27 294.3 499.43 315.6 491.66 327.86 489.02 336.66 488.62 345.83 491.16 355.02 497.52 364.33 506.78 373.47 518.09 382.21 530.8 390.94 542.2 398.83 550.9 405.88 557.06 413.01 558.9 419.5 556.46 425.52 550.77 431.95 541.63 438.38 530.08 445.11 517.1 452.82 503.26 461.37 489.47 470.98 475.97 481.8 463.27 493.65 451.59 506.12 440.72 518.81 430.74 530.94 421.51 541.45 412.8 549.94 404.41 555.16 396.18 556.34 388.09 554.22 379.87 548.1 371.51 538.6 363.15 528 355.05 516.99 347.35 506.93 339.76 499.22 332.77 493.78 326.64 490.67 309.4 496.09 303.49 486.88 300.45 476.88 296.35 469.34 291.19 460.95 285.12 452.07 277.8 443.07 270.42 433.82 263.78 424.52 257.87 415.21 254.33 406.28 253.46 397.72 254.58 389.03 258.46 380.48 264.7 371.97 272.39 363.08 281.61 353.94 291.72 344.45 302.03 334.43 312.46 323.98 322.65 313.26 332.24 302.36 341.39 291.65 350.12 281.67 358.16 272.57 366 265.13 373.82 259.97 381.22 256.77 388.93 256.34 397.1 258.76 405.14 262.73 413.86 268.65 423.34 275.79" stroke-dasharray="0 0" transform="rotate(67.33333333333333, 400, 400)" opacity="0.82"></path><path d="M428.32 288.93C436.95 294.89 445.46 300.37 453.69 304.92 461.81 307.68 469.43 309.36 476.24 310.13 491.1 309 481.12 322.29 476.36 331.29 475.64 337.89 476.83 345.09 480.32 352.62 486.76 360.25 495.34 368.04 505.37 375.82 516.52 383.61 526.62 391.01 534.65 398.03 540.93 405.15 543.85 412.09 543.35 418.98 540.26 426.25 534.12 433.82 525.6 441.85 515.54 450.6 504.18 460.07 492.27 470.26 480.12 481.07 468.14 492.35 456.72 503.62 445.66 514.57 435.27 524.52 425.61 532.67 416.29 538.91 407.5 542.28 399.18 542.28 390.99 539.72 383.09 533.95 375.49 525.46 367.89 516.08 360.92 506.21 354.65 496.86 345.71 486.14 332.37 476.37 328.26 476.13 323.59 478.82 317.51 473.01 313.06 466.09 308.37 460.75 302.86 454.38 296.73 447.21 289.69 439.94 282.73 432.05 276.5 423.69 270.88 415.33 267.28 406.89 265.94 398.44 266.23 389.91 268.92 381.23 273.72 372.38 279.91 363.32 287.67 353.95 296.48 344.33 305.79 334.5 315.55 324.48 325.38 314.55 335.01 304.81 344.45 295.61 353.58 287.4 362.29 280.21 370.78 274.68 379.08 271.25 387.09 269.45 395.13 269.97 403.29 272.82 411.35 276.8 419.69 282.35 428.32 288.93" stroke-dasharray="0 0" transform="rotate(71.07407407407408, 400, 400)" opacity="0.92"></path><path d="M426.37 302.07C434 307.54 441.13 312.73 447.64 317.27 470.33 324.63 464.31 333.55 462.4 339.97 463.27 344.72 465.66 350.2 469.78 356.25 476.08 362.36 483.88 368.92 492.67 375.84 502.31 382.76 511.12 389.71 518.36 396.68 524.45 403.74 528.02 410.96 528.93 418.4 527.93 426.11 524.37 434.23 518.66 442.79 511.54 451.75 502.95 461.2 493.48 470.98 483.45 480.92 473.13 490.86 462.94 500.35 452.75 509.21 442.92 516.88 433.63 522.77 424.49 527.02 415.87 528.85 407.83 527.95 399.87 525.14 392.39 519.81 385.46 512.32 378.53 504.13 372.44 495.41 367.17 486.91 359.68 476.34 348.88 463.56 345.46 460.97 340.1 460.5 330.47 455.75 324.84 450.79 319.75 446.96 314.1 442.13 308.09 436.39 301.44 430.58 294.99 423.96 289.21 416.6 283.95 409.24 280.38 401.52 278.67 393.53 278.25 385.52 279.86 377.2 283.3 368.65 287.95 360.03 294.1 351.17 301.35 342.21 309.26 333.3 317.82 324.45 326.69 315.95 335.68 307.87 344.7 300.52 353.56 294.28 362.29 289.02 370.83 285.29 379.13 283.39 387.28 282.76 395.3 284.01 403.16 287.1 410.97 290.97 418.73 296.1 426.37 302.07" stroke-dasharray="0 0" transform="rotate(74.81481481481481, 400, 400)" opacity="0.84"></path><path d="M417.95 315.21C424.51 320.15 430.34 324.96 435.4 329.36 448.41 336.91 451.02 344.51 449.8 353.13 451.88 356.6 455.08 360.81 459.48 365.69 465.44 370.59 472.39 376.11 479.95 382.23 488.16 388.34 495.69 394.77 502.05 401.46 507.72 408.21 511.54 415.3 513.37 422.69 512.97 437.89 504.9 454.65 491.87 471.8 476.29 488.34 459.14 502.73 442.77 511.72 434.58 514.29 426.75 514.9 419.41 513.38 412.1 510.5 405.26 505.68 399 499.18 392.73 492.15 387.29 484.59 382.64 477.03 377.95 470.17 374.01 463.91 370.77 458.45 363.94 451.27 359.25 446.85 355.78 443.57 350.11 442.39 343.66 439.33 335.74 433.32 330.5 430.29 324.91 426.43 319.18 421.72 313.05 416.99 307.18 411.45 301.93 405.12 297.09 398.79 293.63 391.99 291.68 384.86 290.7 377.75 291.37 370.31 293.56 362.69 300.9 347.62 313 332.3 327.54 318.53 343.22 306.74 359.45 298.72 374.88 296.43 382.58 296.7 390.07 298.43 397.27 301.59 404.47 305.24 411.4 309.87 417.95 315.21" stroke-dasharray="0 0" transform="rotate(78.55555555555556, 400, 400)" opacity="0.69"></path><path d="M405.15 328.35C416.05 336.6 423.95 344.25 428.7 350.38 434.13 354.68 435.61 361.75 438.53 369.03 445.29 374.56 455.22 382.65 467.24 393.32 481.07 403.98 491.54 416.33 496.86 429.69 498.87 443.19 494.95 457.56 486.61 471.39 476.02 484.05 463.2 494.16 450.07 499.5 436.65 501.03 423.87 496.47 412.77 486.03 401.67 474.13 393.08 461.28 386.66 449.79 379.71 441.41 374.02 434.92 368.91 429.66 361.98 426.36 354.31 422.28 345.73 416.49 335.04 410.96 324.09 402.93 314.64 392.28 306.44 381.64 303.09 369.52 304.64 356.98 309.16 344.86 317.82 333.1 328.98 323.25 341.5 315.16 355.04 310.46 368.21 310.35 381.61 312.61 394.24 318.94 405.15 328.35" stroke-dasharray="0 0" transform="rotate(82.29629629629629, 400, 400)" opacity="0.55"></path><path d="M391.08 341.49C399.86 348.67 406.27 355.77 410.41 362.05 415.9 368.13 422.68 378.21 428.49 385.24 435.59 390.18 444.56 397.11 454.52 406.17 465.71 415.22 474.45 425.64 479.62 436.67 482.92 447.57 481.93 458.63 477.36 468.6 471.17 477.38 462.62 483.69 453.03 486.17 443.06 486.1 432.9 481.62 423.42 472.89 413.94 463.16 405.94 452.29 399.24 441.92 392.1 433.33 385.53 425.79 379.17 419.24 371.55 414.16 363.39 408.91 354.85 402.94 345.11 397.32 335.52 390.21 327.36 381.49 320.1 372.76 316.52 363.31 316.63 353.98 318.79 345.04 324.29 336.94 332.05 330.76 341.02 325.87 351.23 323.77 361.52 325.1 372.14 327.81 382.3 333.49 391.08 341.49" stroke-dasharray="0 0" transform="rotate(86.03703703703704, 400, 400)" opacity="0.66"></path><path d="M379.19 354.63C386.01 360.61 391.41 366.85 395.48 372.78 399.76 377.45 403.19 381.96 406.16 386.41 410.12 390.03 414.49 394.22 419.55 399.23 426.25 404 433.9 410.02 441.8 417.39 450.48 424.76 457.38 432.81 461.88 440.93 465.86 452.62 458.91 469.67 450.08 471.81 443.44 470.79 436 466.74 428.34 459.75 420.66 452.13 413.48 443.4 406.83 434.65 399.9 426.76 393.06 419.26 386.26 412.38 378.77 406.4 370.96 400.5 363.16 394.51 354.81 388.81 346.82 382.5 340.08 375.58 332.19 365.24 331.43 347.09 337.61 341.4 343.21 338.91 350.04 338.55 357.31 340.6 364.85 343.31 372.37 348.11 379.19 354.63" stroke-dasharray="0 0" transform="rotate(89.77777777777777, 400, 400)" opacity="0.61"></path><path d="M372.4 367.77C382.45 376.56 390.71 386.62 397.7 396.01 406.93 403.57 418.03 412.85 429.09 424.01 445.16 440.65 441.79 457.36 426.31 446.61 414.86 435.33 402.4 421.36 390.3 408.69 377.09 397.62 363.33 386.51 352.79 376.13 342.78 361.85 357.41 355.57 372.4 367.77" stroke-dasharray="0 0" transform="rotate(93.51851851851852, 400, 400)" opacity="0.20"></path><path d="M372.36 380.91C379.06 387.14 386.11 394.86 392.85 402.42 400.49 409.27 408.91 416.84 416.37 424.29 427.11 437.96 405.71 421.34 391.8 407.36 382.32 398.61 372.73 389.98 365.51 382.99 357.81 373.93 363.09 372.46 372.36 380.91" stroke-dasharray="0 0" transform="rotate(97.25925925925925, 400, 400)" opacity="0.10"></path></g></svg>